# xmcd
#
# Track frame offsets: 
#        150
#        16202
#        33640
#        47507
#        65372
#        82962
#        99520
#        113572
#        132570
#        146455
#
# Disc length: 2307 seconds
#
# Revision: 0
# Processed by: cddbd v1.5.1PL0 Copyright (c) Steve Scherf et al.
# Submitted via: ExactAudioCopy v0.95a5
#
DISCID=7c09010a
DTITLE=Clint Black - All American Country
DYEAR=1900
DGENRE=Country
TTITLE0=When My SHip Comes In
TTITLE1=Nothin' But The Taillights
TTITLE2=A Better Man
TTITLE3=Something That We Do
TTITLE4=State Of Mind
TTITLE5=You Don't Need Me Now
TTITLE6=This Nightlife
TTITLE7=Money Or Love
TTITLE8=Bob Away My Blues
TTITLE9=Are You Sure Waylon Done It This Way
EXTD=
EXTT0=
EXTT1=
EXTT2=
EXTT3=
EXTT4=
EXTT5=
EXTT6=
EXTT7=
EXTT8=
EXTT9=
PLAYORDER=
